<?xml version="1.0" encoding="UTF-8"?>
<svg id="Layer_1" xmlns="http://www.w3.org/2000/svg" version="1.1" viewBox="0 0 595.28 841.89">
  <!-- Generator: Adobe Illustrator 30.1.0, SVG Export Plug-In . SVG Version: 2.1.1 Build 136)  -->
  <defs>
    <style>
      .st0 {
        fill: #231f20;
      }
    </style>
  </defs>
  <g id="fBXb1t">
    <g>
      <path class="st0" d="M169.04,451.69l-34.12,11.74c-2.95,1.02-6.02-1.27-6.3-4.07-.31-3-.5-5.63-.51-8.68l-.08-87.84c0-5.42,3.94-10.87,9.86-10.84l86.72.45c4.62.02,8.36,4.01,8.36,8.68l.1,61.4c0,2.68-1.03,5.86-3,7.54l-61.02,21.62ZM223.04,427.03c2.35-.81,4.05-2.67,4.05-5.08l-.06-58.72c0-3.2-2.2-4.74-4.93-4.74l-81.84.03c-2.98,0-5.6,1.65-5.6,5.13l.11,88.8c0,1,.96,2.37,1.58,2.8s2.5.66,3.26.4l26.89-9.08,56.54-19.54Z"/>
      <g>
        <path class="st0" d="M245.33,498.72c-5.3,2.93-10.89,3.52-16.83,2.09l-87.46-20.97c-2.59-.62-4.67-2.09-5.8-4.2s-.48-4.97,1.97-5.83l23.11-8.09,68.5-25.04c3.74-1.37,6.94-2.58,11.1-1.85l46.3,8.09,28.47,5.3c2.62.49,4.24,2.59,4.64,4.93s-.9,4.85-3.25,6.17l-26.63,15.01-44.13,24.39ZM165.27,471.92l55.83-22.02,22.82-9.25c-2.15-.91-5.02-2.05-6.85-1.6l-31.99,12.08-48.83,18.89c2.94,1.27,5.95,2.04,9.02,1.9ZM179.11,476.15l79.14-33.17c-2.23-1.08-5.22-2.21-7.05-1.5l-13.27,5.12-66.99,27.17c2.68,1.35,4.99,1.93,8.17,2.39ZM236.99,460.64l34.88-15.5c-1.82-1-4.93-2.37-6.81-1.58l-27.24,11.45-51.56,22.16c2.46,1.15,5.25,2.01,8.01,2.08l42.71-18.61ZM208.15,483.06l77.6-35.29c-2.62-1.02-5.27-1.58-8.01-1.74l-44.39,19.89-34.57,15.35c2.97,1.1,6.22,2.62,9.38,1.79ZM267.77,475.31l24.32-13.52-14.57-2.97c-2.56-.52-5.13-.4-7.36,1.17-8.61,4.93-15.73,7.42-24.66,12.26,5.23,1.45,9.53,2.1,14.51,3,2.36.43,5.33,1.41,7.76.05Z"/>
        <g>
          <path class="st0" d="M267.64,556.13c4.79,3.21,18.78,13.89,21.01,19l-19.87-3.2c-7.55-1.22-14.04-4.81-21.75-7.45,6.55,8.96,14.2,16.46,23.08,22.57,5.73,3.95,12.46,5.44,18.16,9.28l11.17,7.53c-25.45,1.24-47.83-10.99-68.27-24.8-21.31-14.97-40.1-24.06-67.17-26.46,17.8-26.77,49.49-40.97,80.08-46.16,25.56-4.28,54.69-.85,79.69,6.05l36.93,10.2c12.67,3.5,25.4,5.04,38.44,4.02,18.17-1.42,36.32-10.15,47.69-24.5,1.85-2.33,2.72-5.04,5.09-7.26-1.74,5.35-4.24,10.01-7.29,14.55-8.91,13.29-27.52,22.17-43.15,24.34-10.94,1.52-21.6.93-32.41-1.22-14.82-2.94-28.82-7-43.34-11.12-13.4-3.8-34.31-8.85-48.22-8.01l9.05,5.69c3.32,2.09,6.78,4.22,8.73,7.97-14.51-4.44-25.3-6.1-40.28-6.7,3.21,2.52,6.17,3.68,9.49,5.31,9.85,4.82,22.16,12.5,28.88,21.95l-8.65-1.27-37.75-5.34c.55,1.15,1.49,2.19,2.55,2.9l18.12,12.13Z"/>
          <path class="st0" d="M369.57,444.24c-22.99,13.45-27.09,43.03-16.64,65.98l-5.18-1.28c-1.36-.34-3.06-2.06-3.56-3.52-2.08-6.12-3.63-12.08-4.29-18.58-2.91-28.48,17.11-54.78,46.13-56.23,13.81-.69,26.83,5.24,36.4,14.92,5.44,5.54,9.16,12.28,8.97,20.52-2.98-5.25-6.26-9.85-10.76-13.92-7.32-7.15-16.47-11.32-26.68-12.9-8.46-.63-16.94.66-24.38,5.01Z"/>
        </g>
      </g>
      <g>
        <path class="st0" d="M470.83,477.08c1.5-20.93-1.43-41.71-8.68-61.24s-17.96-37.2-32.1-52.26l-18.72-19.94c-5.45-5.8-10.7-11.45-15.14-18.06l-13.98-20.85c-6.8-10.15-14.97-18.72-24.95-25.84-.24-2.73-.24-5.26.1-7.86,12.44,8.24,21.88,18.97,30.46,30.9l17.68,24.6c2.5,3.49,5.52,6.58,8.45,9.7l15.89,16.92c18.13,19.3,32.41,41.99,39.88,67.59,6.94,23.79,6.11,48.68-1.06,72.09-.1-5.48,1.77-10.04,2.18-15.74Z"/>
        <g>
          <path class="st0" d="M321.44,247.69l-7.71-2.77c.65,4.75,2.66,8.31,5.47,11.58,7.05,8.22,10.08,18.39,8.03,29.27-18.38-4.25-21.46-32.41-17.61-47.37,5.03.15,9.06,1.93,13.55,3.84,7.37,3.13,14.36,6.91,19.24,13.53,5.39,7.3,8.33,19.84,5.17,28.2-.3-7.61-1.62-14.55-5.88-20.73-4.94-7.15-11.85-12.53-20.26-15.55Z"/>
          <path class="st0" d="M254.88,338.51c-2.33-.08-4.51-.78-6.69-1.86l8.18-6.3c9.96-7.67,13.43-15.62,17.13-27.67,4.91-15.98,14.37-26.63,29.38-33.85l2.34,6.08c-26.83,11.5-23.56,35.53-35.61,50-4.32,5.18-9.28,9.12-14.74,13.6Z"/>
          <path class="st0" d="M300.79,261.15c-11.12-7.61-13.94-9.54-27.56-13.85.36,3.71,1.93,6.88,3.94,9.97,2.98,4.57,5.33,9.02,7.33,14.18l-5.46,6.82c-8.62-10.63-12.65-24.43-10.97-38.43,12.28,1.81,22.93,7.16,32.61,14.2l.1,7.11Z"/>
          <g>
            <path class="st0" d="M309.38,374.62c-.34-5.98-1.8-10.97-4.94-15.75,13.87-2.28,26.77-3.35,36.32,8.49.53-4.35-.61-9.37-4.46-12.35-10.64-8.22-25.42-6.56-37.7-3.17l-13.49,3.72c-11.02,3.04-22.34,2.46-33.17-2.22l4.84-7.6c15.05-1.46,21.43-5.24,33.36-13.75,9-6.42,18.61-11.16,29.55-13.19,18.06-3.36,36.68,5.03,42.24,23.78-7.21-4.97-14.73-8.86-24.03-10.09,1.71,2.93,3.6,5.5,5.66,8.27l5.87,3.66c7.21,4.5,10.33,12.02,8.26,20.36s-5.77,15.28-10.54,22.13c-12.41,17.83-24.05,34.98-19.56,58.28-10.49-8.23-15.96-31.13-16.67-43.53l-1.55-27.02Z"/>
            <path class="st0" d="M250.82,342.81c-2.21,1.52-4.9,2.6-7.44,2.82-.96.08-2.15-2.23-2.01-3.15.15-1.01,1.59-2.62,2.94-2.85,2.39-.42,4.34.93,6.5,3.18Z"/>
          </g>
          <path class="st0" d="M298.91,312.56c-1.35.17-2.22-1.87-2.19-2.76.04-1.04,1.2-2.57,2.46-2.39.77.11,1.67,1.69,1.65,2.4-.02.82-.89,2.61-1.93,2.75Z"/>
        </g>
      </g>
    </g>
  </g>
</svg>